<?xml version="1.0" standalone="no"?>
<!DOCTYPE svg PUBLIC "-//W3C//DTD SVG 20010904//EN"
 "http://www.w3.org/TR/2001/REC-SVG-20010904/DTD/svg10.dtd">
<svg version="1.0" xmlns="http://www.w3.org/2000/svg"
 width="700.000000pt" height="210.000000pt" viewBox="0 0 700.000000 210.000000"
 preserveAspectRatio="xMidYMid meet">

<g transform="translate(0.000000,210.000000) scale(0.100000,-0.100000)"
fill="#1B3864" stroke="none">
<path d="M5116 1428 c-24 -34 -19 -70 14 -108 16 -19 29 -38 30 -42 0 -4 -128
-8 -285 -10 -241 -3 -287 -5 -295 -18 -12 -19 -13 -550 -1 -568 11 -18 80 -26
113 -13 25 9 27 15 30 77 l3 68 135 56 c130 55 135 58 138 89 4 37 -30 91 -57
91 -10 0 -60 -18 -112 -39 -52 -22 -98 -36 -102 -32 -4 4 -7 39 -5 77 l3 69
218 3 c119 1 217 0 217 -3 0 -3 -13 -24 -30 -47 -34 -47 -38 -87 -12 -111 40
-36 64 -23 157 86 49 56 97 112 108 124 l19 22 -107 125 c-90 106 -112 126
-136 126 -17 0 -34 -8 -43 -22z"/>
<path d="M3290 1271 c-111 -36 -165 -118 -139 -213 20 -77 71 -113 205 -144
38 -8 77 -23 87 -31 40 -36 3 -93 -60 -93 -35 0 -49 7 -132 62 -14 10 -34 18
-43 18 -21 0 -78 -56 -78 -77 0 -9 20 -36 45 -59 118 -114 354 -91 422 39 21
42 21 124 -1 165 -23 44 -66 69 -156 88 -105 22 -129 33 -136 61 -16 60 61 81
141 39 59 -32 91 -22 121 37 14 26 14 31 -3 49 -43 49 -202 83 -273 59z"/>
<path d="M6296 1265 c-49 -17 -102 -69 -117 -113 -15 -47 -6 -114 21 -151 28
-40 81 -67 183 -92 95 -24 107 -32 107 -70 0 -35 -32 -59 -78 -59 -38 0 -63
11 -112 52 -43 35 -70 35 -109 2 -41 -34 -39 -62 7 -106 64 -61 95 -73 202
-73 111 0 172 23 218 83 24 32 27 44 27 113 0 72 -2 80 -30 109 -29 30 -130
70 -179 70 -11 0 -40 9 -63 20 -34 15 -43 24 -43 44 0 30 34 56 72 56 16 0 50
-12 78 -26 41 -21 52 -24 72 -14 32 17 58 51 58 77 0 68 -202 118 -314 78z"/>
<path d="M360 1260 c-9 -5 -15 -25 -15 -50 0 -25 6 -45 15 -50 8 -5 63 -10
123 -10 l107 0 0 -228 c0 -164 3 -231 12 -240 7 -7 33 -12 59 -12 79 0 79 -1
79 256 l0 224 108 0 c71 0 112 4 120 12 16 16 16 80 0 96 -15 15 -585 17 -608
2z"/>
<path d="M1060 1250 c-20 -20 -21 -30 -18 -291 3 -227 5 -271 18 -279 23 -15
473 -13 488 2 16 16 16 105 0 115 -7 4 -87 10 -178 13 l-165 5 129 55 c71 30
134 63 140 73 9 13 7 25 -9 54 -33 61 -43 62 -147 19 -51 -21 -99 -40 -105
-43 -10 -4 -13 15 -13 76 l0 81 161 0 c91 0 169 4 180 10 15 8 19 21 19 60 0
39 -4 52 -19 60 -12 6 -107 10 -240 10 -209 0 -222 -1 -241 -20z"/>
<path d="M1896 1248 c-38 -34 -289 -512 -282 -536 8 -25 78 -56 108 -48 13 3
32 20 44 38 20 31 28 34 155 62 74 16 139 30 144 32 6 2 26 -25 45 -61 36 -69
58 -83 102 -69 39 12 68 35 68 54 0 27 -257 501 -286 528 -14 12 -36 22 -49
22 -13 0 -35 -10 -49 -22z m94 -290 c24 -44 28 -59 18 -63 -25 -8 -151 -35
-154 -33 -1 2 18 41 43 86 25 46 49 80 53 75 4 -4 22 -34 40 -65z"/>
<path d="M2362 1254 c-22 -15 -22 -18 -22 -284 0 -306 -2 -300 79 -300 26 0
52 5 59 12 8 8 12 60 12 168 0 86 3 159 6 163 4 3 27 -20 52 -51 89 -112 112
-132 154 -132 43 0 49 5 131 107 31 40 61 75 67 78 7 4 10 -50 10 -159 0 -186
0 -186 77 -186 76 0 74 -9 71 305 l-3 279 -32 9 c-70 21 -92 7 -209 -133 -60
-71 -111 -129 -114 -129 -3 0 -52 56 -110 126 -58 69 -115 129 -128 134 -35
14 -75 11 -100 -7z"/>
<path d="M3705 1257 c-19 -15 -20 -27 -20 -287 0 -307 -2 -300 79 -300 61 0
70 11 76 82 l5 62 119 48 c66 26 121 48 123 48 2 0 3 -45 3 -100 0 -120 12
-140 84 -140 77 0 76 -5 76 300 0 266 0 269 -22 284 -28 20 -88 21 -114 2 -16
-12 -20 -31 -24 -112 l-5 -97 -102 -43 c-56 -23 -112 -45 -123 -49 -19 -6 -20
-2 -20 137 0 79 -4 149 -9 157 -13 21 -101 26 -126 8z"/>
<path d="M4350 1250 c-19 -19 -20 -33 -20 -284 0 -303 -2 -296 80 -296 80 0
80 1 80 302 0 245 -1 259 -20 278 -13 13 -33 20 -60 20 -27 0 -47 -7 -60 -20z"/>
<path d="M5468 1259 c-23 -13 -24 -72 -2 -93 12 -13 39 -16 125 -16 l109 0 0
-228 c0 -164 3 -231 12 -240 7 -7 33 -12 59 -12 79 0 79 -1 79 256 l0 224 101
0 c122 0 139 7 139 58 0 21 -5 43 -12 50 -15 15 -584 17 -610 1z"/>
</g>
</svg>
